<svg width="194" height="36" viewBox="0 0 194 36" fill="none" xmlns="http://www.w3.org/2000/svg">
<path d="M57.9318 14.9709C56.3777 13.5586 54.2114 12.7036 51.4908 12.4303C49.9174 12.2691 48.7141 11.9922 47.9142 11.6068C47.181 11.2546 46.6828 10.8533 46.4355 10.4136C46.1706 9.94398 46.0426 9.4709 46.0426 8.96629C46.0426 7.9956 46.4232 7.32628 47.2406 6.86197C48.1808 6.32757 49.3876 6.07 50.8295 6.08402C51.6294 6.08402 52.324 6.1909 52.8958 6.40291C53.4659 6.61492 53.9658 6.90577 54.3833 7.26671C54.8025 7.63116 55.1656 8.08671 55.4673 8.63513C55.8076 9.22385 56.3198 9.62859 56.9898 9.8406C57.6897 10.0631 58.3843 9.97727 59.0035 9.58829C59.5701 9.2221 59.9139 8.68244 59.9981 8.02539C60.077 7.41564 59.9104 6.78312 59.5157 6.16111C58.9386 5.21671 58.2475 4.38445 57.4582 3.6906C56.6566 2.98449 55.7094 2.42556 54.6429 2.02607C53.5781 1.62833 52.3275 1.42859 50.9277 1.42859C49.1614 1.42859 47.5318 1.70543 46.0812 2.25385C44.5867 2.81803 43.3799 3.66081 42.4958 4.75765C41.5855 5.88778 41.1241 7.27197 41.1241 8.87167C41.1241 11.0426 41.9889 12.8858 43.6956 14.3489C45.3427 15.7628 47.609 16.6179 50.4225 16.8895C52.2591 17.0822 53.5711 17.5658 54.3219 18.3245C55.0621 19.0726 55.4217 19.8856 55.4217 20.8072C55.4217 21.5098 55.2252 22.074 54.82 22.5366C54.3763 23.0412 53.7781 23.4354 53.0414 23.7088C52.2678 23.9961 51.4048 24.1398 50.4752 24.1398C49.6437 24.1398 48.8421 24.0136 48.0931 23.7631C47.3459 23.5143 46.7056 23.1884 46.1899 22.7959C45.7058 22.4262 45.3602 22.0285 45.1603 21.615C44.8919 21.0508 44.4885 20.618 43.9587 20.3307C43.4062 20.031 42.8309 19.9452 42.2643 20.0713C41.3013 20.2641 40.8137 20.7915 40.5751 21.2015C40.2138 21.82 40.1945 22.5103 40.519 23.2024C40.9978 24.3185 41.7538 25.3155 42.7695 26.1635C43.764 26.9958 44.9463 27.6511 46.2811 28.1101C47.6072 28.5674 49.0175 28.7987 50.4769 28.7987C51.7048 28.7987 52.9098 28.6375 54.0605 28.3186C55.2323 27.9945 56.2952 27.4916 57.2196 26.8276C58.1616 26.1495 58.9229 25.298 59.4842 24.2957C60.056 23.276 60.3454 22.0705 60.3454 20.7126C60.3454 18.3612 59.535 16.4304 57.9371 14.9779L57.9318 14.9709Z" fill="black"/>
<path d="M76.6058 10.3995C75.1534 9.54625 73.4853 9.11347 71.6505 9.11347C69.8157 9.11347 68.1791 9.54625 66.7268 10.4013C65.2779 11.2546 64.1167 12.432 63.2765 13.9003C62.438 15.3669 61.9995 17.0366 61.9767 18.8729V33.5418C61.9767 34.2269 62.2205 34.8313 62.6836 35.2939C63.1449 35.7547 63.7518 36 64.4377 36C65.1235 36 65.7638 35.753 66.2181 35.2834C66.6619 34.8226 66.8969 34.2216 66.8969 33.5418V26.7698C67.374 27.136 67.888 27.4566 68.437 27.7282C69.607 28.3081 70.905 28.6007 72.2942 28.6007C74.0115 28.6007 75.5779 28.1627 76.9478 27.3007C78.309 26.4456 79.3965 25.2717 80.1806 23.8104C80.9612 22.3561 81.3558 20.6951 81.3558 18.8729C81.3558 17.0507 80.9226 15.3668 80.0701 13.8951C79.2194 12.4268 78.0529 11.2511 76.6058 10.3995ZM76.5637 18.8729C76.5637 19.8646 76.3427 20.7652 75.9094 21.5501C75.4709 22.3439 74.8955 22.9501 74.1536 23.4039C73.4186 23.8525 72.6012 24.0715 71.6505 24.0715C70.6998 24.0715 69.9052 23.8525 69.1597 23.4004C68.4089 22.9483 67.8371 22.3439 67.4108 21.5554C66.9846 20.7704 66.7689 19.8663 66.7689 18.8729C66.7689 17.8794 66.9846 16.9438 67.4108 16.1571C67.8371 15.3686 68.4089 14.7659 69.1597 14.3121C69.9069 13.8618 70.7208 13.641 71.6505 13.641C72.5801 13.641 73.4186 13.86 74.1536 14.3086C74.8973 14.7641 75.4709 15.3704 75.9094 16.1623C76.3444 16.949 76.5637 17.8601 76.5637 18.8711V18.8729Z" fill="black"/>
<path d="M97.59 10.3627C96.1393 9.53398 94.4642 9.11347 92.6101 9.11347C90.7561 9.11347 89.0493 9.53398 87.5987 10.3627C86.1446 11.195 84.9869 12.3584 84.1537 13.8215C83.324 15.2792 82.903 16.9788 82.903 18.8729C82.903 20.7669 83.324 22.435 84.1537 23.8928C84.9851 25.3558 86.1446 26.5192 87.5987 27.3515C89.0493 28.1802 90.735 28.6007 92.6101 28.6007C94.4852 28.6007 96.1709 28.1802 97.6215 27.3515C99.0757 26.5192 100.23 25.3558 101.053 23.8892C101.87 22.4315 102.284 20.7442 102.284 18.8746C102.284 17.0051 101.863 15.2827 101.033 13.8232C100.202 12.3602 99.0424 11.1968 97.5882 10.3663L97.59 10.3627ZM97.4935 18.8729C97.4935 19.9101 97.283 20.83 96.8655 21.608C96.4498 22.3824 95.8903 22.9746 95.1535 23.4162C94.4168 23.8577 93.5854 24.0715 92.6119 24.0715C91.6384 24.0715 90.8069 23.8577 90.0702 23.4162C89.3317 22.9729 88.7652 22.3789 88.3372 21.601C87.9127 20.8265 87.6969 19.9084 87.6969 18.8729C87.6969 17.8374 87.9127 16.9122 88.3389 16.1255C88.7652 15.3371 89.3317 14.7396 90.0684 14.298C90.8034 13.8565 91.6349 13.6427 92.6101 13.6427C93.5854 13.6427 94.4151 13.8565 95.1518 14.298C95.8868 14.7378 96.4463 15.3336 96.862 16.1185C97.2795 16.907 97.4917 17.8339 97.4917 18.8729H97.4935Z" fill="black"/>
<path d="M116.785 9.81075C116.008 9.29737 114.917 9.04857 113.452 9.04857C111.987 9.04857 110.702 9.38673 109.511 10.0543C109.218 10.2172 108.941 10.396 108.676 10.5887C108.569 10.3171 108.416 10.0806 108.218 9.88258C107.792 9.45681 107.19 9.2413 106.432 9.2413C105.674 9.2413 105.099 9.46207 104.662 9.89835C104.226 10.3346 104.005 10.9286 104.005 11.6663V26.0443C104.005 26.81 104.231 27.4127 104.673 27.8385C105.108 28.2573 105.699 28.4693 106.432 28.4693C107.165 28.4693 107.802 28.245 108.228 27.8017C108.648 27.3672 108.86 26.7767 108.86 26.0443V16.6511C108.86 15.8802 109.093 15.2687 109.576 14.7781C110.091 14.2542 110.824 13.8862 111.758 13.6847C112.736 13.4745 113.87 13.4972 115.104 13.746C115.492 13.8354 115.864 13.8494 116.206 13.7863C116.59 13.718 116.934 13.5498 117.23 13.2887C117.543 13.0137 117.753 12.6369 117.855 12.1726C117.99 11.633 118.021 10.6255 116.785 9.80724V9.81075Z" fill="black"/>
<path d="M130.967 24.3431C130.544 23.87 129.993 23.6195 129.374 23.6195H128.28C127.841 23.6195 127.49 23.439 127.174 23.0518C126.86 22.6663 126.65 22.1634 126.65 20.9632V13.8355H128.569C129.23 13.8355 129.785 13.6323 130.22 13.2328C130.665 12.821 130.9 12.2796 130.9 11.6681C130.9 11.0128 130.665 10.4504 130.218 10.0386C129.785 9.63915 129.229 9.4359 128.569 9.4359H126.65V5.61975C126.65 5.21325 126.238 4.61227 125.959 4.33368C125.506 3.88338 124.906 3.64509 124.222 3.64509C123.538 3.64509 122.937 3.88338 122.486 4.33368C122.154 4.66483 121.795 5.2518 121.795 5.61975V9.43415H121.132C120.47 9.43415 119.916 9.6374 119.483 10.0369C119.037 10.4469 118.8 11.0111 118.8 11.6664C118.8 12.2796 119.036 12.821 119.483 13.231C119.916 13.6305 120.472 13.8338 121.133 13.8338H121.796V20.9615C121.796 22.6575 122.046 23.8577 122.63 24.9739C123.187 26.0409 123.966 26.8977 124.943 27.5197C125.931 28.1487 127.053 28.4676 128.281 28.4676H128.862C129.618 28.4676 130.256 28.2504 130.76 27.8228C131.297 27.3673 131.581 26.7523 131.581 26.0409C131.581 25.3295 131.376 24.7934 130.97 24.3378L130.967 24.3431Z" fill="black"/>
<path d="M167.44 19.5668C170.436 18.4577 172.49 16.0713 172.49 12.2692V12.2026C172.49 9.98264 171.781 8.13414 170.469 6.82179C168.922 5.2764 166.598 4.43538 163.603 4.43538H151.356L154.491 9.10833H163.167C165.691 9.10833 167.238 10.2525 167.238 12.4707V12.539C167.238 14.5224 165.791 15.8681 163.265 15.8681H159.022L167.136 27.9736H173.197L167.44 19.5668Z" fill="black"/>
<path d="M184.982 4.43526H174.747V9.10821H184.544C187.138 9.10821 188.753 10.354 188.753 12.6721V12.7404C188.753 14.7589 187.236 16.3042 184.645 16.3042H174.747V27.9717H179.93V20.9106H184.477C189.762 20.9106 194.003 18.0844 194.003 12.6388V12.5704C194.003 7.76257 190.604 4.43351 184.982 4.43351V4.43526Z" fill="black"/>
<path d="M149.357 9.0435H135.84V4.43538H146.268L149.357 9.0435Z" fill="black"/>
<path d="M162.047 27.9734H135.84V13.8162H152.556L155.645 18.4243H140.99V23.3653H158.96L162.047 27.9734Z" fill="black"/>
<path d="M17.9654 4.45354L26.113 8.07163C28.4606 9.10735 28.4606 10.82 26.113 11.8554L17.9654 15.4735C17.0401 15.8878 15.5211 15.8878 14.5958 15.4735L6.44821 11.8554C4.1006 10.82 4.1006 9.10735 6.44821 8.07163L14.5958 4.45354C15.5211 4.03925 17.0401 4.03925 17.9654 4.45354Z" stroke="#ED1C24" stroke-width="3" stroke-linecap="round" stroke-linejoin="round"/>
<path d="M16.5082 24.2338C15.9835 24.2338 15.4587 24.1234 14.9754 23.9162L5.66777 19.7734C4.24539 19.1381 3.14062 17.4396 3.14062 15.8791C3.14062 15.3129 3.59634 14.8572 4.16253 14.8572C4.72872 14.8572 5.18443 15.3129 5.18443 15.8791C5.18443 16.6248 5.80586 17.5915 6.49634 17.8953L15.804 22.0381C16.2459 22.2315 16.7568 22.2315 17.1987 22.0381L26.5063 17.8953C27.1968 17.5915 27.8182 16.6386 27.8182 15.8791C27.8182 15.3129 28.274 14.8572 28.8402 14.8572C29.4063 14.8572 29.8621 15.3129 29.8621 15.8791C29.8621 17.4257 28.7573 19.1381 27.3349 19.7734L18.0273 23.9162C17.5578 24.1234 17.033 24.2338 16.5082 24.2338Z" fill="#D1D5DB"/>
<path d="M16.5082 31.0833C15.9835 31.0833 15.4587 30.9729 14.9754 30.7657L5.66777 26.6229C4.13491 25.9462 3.14062 24.4133 3.14062 22.7286C3.14062 22.1624 3.59634 21.7067 4.16253 21.7067C4.72872 21.7067 5.18443 22.1624 5.18443 22.7286C5.18443 23.5986 5.69539 24.3857 6.49634 24.7448L15.804 28.8876C16.2459 29.081 16.7568 29.081 17.1987 28.8876L26.5063 24.7448C27.2935 24.3995 27.8182 23.5986 27.8182 22.7286C27.8182 22.1624 28.274 21.7067 28.8402 21.7067C29.4063 21.7067 29.8621 22.1624 29.8621 22.7286C29.8621 24.4133 28.8678 25.9324 27.3349 26.6229L18.0273 30.7657C17.5578 30.9729 17.033 31.0833 16.5082 31.0833Z" fill="black"/>
</svg> 